{"title":"Warcraft (2016) 1080p WebHD x264 Hindi - dubbed AC3 2.0 -DDR","uid":15511724,"size":2459130548,"categoryP":"video","categoryS":"hd___movies","magnet":"?xt=urn:btih:eafe34a2924ce7729e43ca3b1f569b7978d0cbbd&amp;dn=Warcraft+%282016%29+1080p+WebHD+x264+Hindi+-+dubbed+AC3+2.0+-DDR&amp;tr=udp%3A%2F%2Ftracker.leechers-paradise.org%3A6969&amp;tr=udp%3A%2F%2Fzer0day.ch%3A1337&amp;tr=udp%3A%2F%2Fopen.demonii.com%3A1337&amp;tr=udp%3A%2F%2Ftracker.coppersurfer.tk%3A6969&amp;tr=udp%3A%2F%2Fexodus.desync.com%3A6969","seeders":9,"leechers":11,"uploader":"SaM","files":3,"time":1470663659,"description":"\n1080p Web-HD Rip x264\r\n\r\nHindi AC3 Stereo\r\n\r\n\r\n\r\nHindi - Cleaned and enhanced Line Audio \r\n \nhttp://extraimago.com/image/wTPy \nhttp://extraimago.com/image/wTPq \nhttp://extraimago.com/image/wTPS \nhttp://extraimago.com/image/wTPO \nhttp://extraimago.com/image/wTPE \nhttp://extraimago.com/image/wTP1 \nhttp://extraimago.com/image/wTPc \nhttp://extraimago.com/image/wTP7 \nhttp://extraimago.com/image/wTPs \nhttp://extraimago.com/image/wTPn\r\n\r\nSpecs:\r\nSource: Web-HD @ HDC\r\n\r\nFormat : Matroska\r\nFile size : 2.26 GiB\r\nDuration : 1h 58mn\r\nOverall bit rate : 2 736 Kbps\r\n\r\n\r\nVideo\r\nFormat : AVC\r\nFormat/Info : Advanced Video Codec\r\nFormat profile :   \r\nFormat settings, CABAC : Yes\r\nFormat settings, ReFrames : 5 frames\r\nCodec ID : V_MPEG4/ISO/AVC\r\nDuration : 1h 58mn\r\nBit rate : 2 496 Kbps\r\nWidth : 1 920 pixels\r\nHeight : 784 pixels\r\nDisplay aspect ratio : 2.40:1\r\nFrame rate mode : Constant\r\nFrame rate : 25.000 fps\r\nColor space : YUV\r\nChroma subsampling : 4:2:0\r\nBit depth : 8 bits\r\nScan type : Progressive\r\nBits/(Pixel*Frame) : 0.066\r\nStream size : 2.06 GiB (91%)\r\nDefault : Yes\r\nForced : No\r\nColor range : Limited\r\nColor primaries : BT.709\r\nTransfer characteristics : BT.709\r\nMatrix coefficients : BT.709\r\n\r\nAudio #1\r\nFormat : AC-3\r\nFormat/Info : Audio Coding 3\r\nMode extension : CM (complete main)\r\nFormat settings, Endianness : Big\r\nCodec ID : A_AC3\r\nDuration : 1h 49mn\r\nBit rate mode : Constant\r\nBit rate : 256 Kbps\r\nChannel(s) : 2 channels\r\nChannel positions : Front: L R\r\nSampling rate : 44.1 KHz\r\nFrame rate : 28.711 fps (1536 spf)\r\nCompression mode : Lossy\r\nStream size : 201 MiB (9%)\r\nLanguage : Hindi\r\nDefault : Yes\r\nForced : No\r\n\r\nChapters : None\r\n\r\nSAMPLE Included","torrent":{"xt":"urn:btih:eafe34a2924ce7729e43ca3b1f569b7978d0cbbd","amp;dn":"Warcraft+%282016%29+1080p+WebHD+x264+Hindi+-+dubbed+AC3+2.0+-DDR","amp;tr":["udp%3A%2F%2Ftracker.leechers-paradise.org%3A6969","udp%3A%2F%2Fzer0day.ch%3A1337","udp%3A%2F%2Fopen.demonii.com%3A1337","udp%3A%2F%2Ftracker.coppersurfer.tk%3A6969","udp%3A%2F%2Fexodus.desync.com%3A6969"],"infoHash":"eafe34a2924ce7729e43ca3b1f569b7978d0cbbd","infoHashBuffer":{"type":"Buffer","data":[234,254,52,162,146,76,231,114,158,67,202,59,31,86,155,121,120,208,203,189]},"announce":[],"urlList":[]}}